HIERARCHY
ROOT Hips
{
    OFFSET 0.000000 0.000000 0.000000
    CHANNELS 6 Xposition Yposition Zposition Zrotation Xrotation Yrotation
        JOINT Chest
        {
            OFFSET -0.000000 29.765863 -0.000000
            CHANNELS 3 Zrotation Xrotation Yrotation
            JOINT Neck
            {
                OFFSET -0.000000 22.048780 0.000000
                CHANNELS 3 Zrotation Xrotation Yrotation
                JOINT Head
                {
                    OFFSET -0.000000 10.266670 0.000000
                    CHANNELS 3 Zrotation Xrotation Yrotation
                    End Site
                    {
                        OFFSET -0.000000 15.866677 0.000000
                    }
                }
            }
            JOINT LeftCollar
            {
                OFFSET -0.000000 22.048780 0.000000
                CHANNELS 3 Zrotation Xrotation Yrotation
                JOINT LeftShoulder
                {
                    OFFSET 18.666672 -0.000000 0.000000
                    CHANNELS 3 Zrotation Xrotation Yrotation
                    JOINT LeftElbow
                    {
                        OFFSET 23.656216 0.000000 0.000000
                        CHANNELS 3 Zrotation Xrotation Yrotation
                        JOINT LeftWrist
                        {
                            OFFSET 24.590921 0.000000 0.000000
                            CHANNELS 3 Zrotation Xrotation Yrotation
                            End Site
                            {
                                OFFSET 0.000000 -14.000008 0.000000
                            }
                        }
                    }
                }
            }
            JOINT RightCollar
            {
                OFFSET -0.000000 22.048780 0.000000
                CHANNELS 3 Zrotation Xrotation Yrotation
                JOINT RightShoulder
                {
                    OFFSET -18.666672 0.000000 0.000000
                    CHANNELS 3 Zrotation Xrotation Yrotation
                    JOINT RightElbow
                    {
                        OFFSET -23.656216 0.000000 0.000000
                        CHANNELS 3 Zrotation Xrotation Yrotation
                        JOINT RightWrist
                        {
                            OFFSET -24.590921 0.000000 0.000000
                            CHANNELS 3 Zrotation Xrotation Yrotation
                            End Site
                            {
                                OFFSET -0.000000 -14.000008 0.000000
                            }
                        }
                    }
                }
            }
        }
    JOINT LeftHip
    {
        OFFSET 11.200002 0.000000 0.000000
        CHANNELS 3 Zrotation Xrotation Yrotation
        JOINT LeftKnee
        {
            OFFSET -0.000000 -37.692356 0.000000
            CHANNELS 3 Zrotation Xrotation Yrotation
            JOINT LeftAnkle
            {
                OFFSET -0.000000 -39.524944 0.000000
                CHANNELS 3 Zrotation Xrotation Yrotation
                End Site
                {
                    OFFSET -0.000000 -4.666668 15.866677
                }
            }
        }
    }
    JOINT RightHip
    {
        OFFSET -11.200002 0.000000 0.000000
        CHANNELS 3 Zrotation Xrotation Yrotation
        JOINT RightKnee
        {
            OFFSET -0.000000 -37.692356 0.000000
            CHANNELS 3 Zrotation Xrotation Yrotation
            JOINT RightAnkle
            {
                OFFSET -0.000000 -39.524944 0.000000
                CHANNELS 3 Zrotation Xrotation Yrotation
                End Site
                {
                    OFFSET -0.000000 -4.666668 15.866677
                }
            }
        }
    }
}
MOTION
Frames:    5
Frame Time:    0.010000
-115.679756    79.899117    -26.525545    2.962321    -1.676450    75.764565    -7.536520    7.721513    0.479725    14.786650    6.157975    -18.149214    -6.030450    -26.456659    -18.771744    -8.550055    0.320498    -4.539457    -30.709929    22.036650    -56.999641    60.369553    -34.846054    -55.181885    121.403313    10.059523    69.743401    9.199495    0.204890    2.745890    -12.364651    15.034282    91.795944    -48.261017    -13.311251    28.656551    -80.777573    -21.153679    -21.647257    6.362108    0.970234    -6.447290    -1.607210    36.418236    -18.525595    20.369072    -32.748943    16.851831    -13.527321    -36.303493    4.318074    19.580616    47.549892    -13.370753    13.508206    -5.830530    -8.533193    
-115.496864    79.975319    -26.552057    3.008133    -1.705930    76.084335    -7.858265    7.617735    0.610931    14.987521    5.941273    -18.202831    -6.067810    -26.114225    -18.831505    -8.512068    0.337370    -4.403344    -29.375942    21.972511    -58.770912    61.220074    -33.835526    -52.994240    120.243698    10.970456    71.051178    8.626527    0.205125    2.804432    -11.432501    14.052331    90.816086    -48.152225    -13.003479    28.171619    -79.074837    -22.002663    -21.280878    6.308836    1.326479    -6.602404    -1.352747    35.945366    -19.490511    20.702572    -32.321865    17.589260    -13.072169    -36.301456    4.267565    19.634100    46.356884    -12.342757    15.862506    -5.742301    -6.871914    
-115.303268    80.044624    -26.566965    3.043175    -1.712118    76.397446    -8.172668    7.515519    0.732061    15.140411    5.716916    -18.238180    -6.071852    -25.780420    -18.870029    -8.543802    0.319934    -4.257628    -27.946196    21.981201    -60.526142    61.966396    -32.811760    -50.853981    118.769104    11.778997    72.293686    8.064136    0.211805    2.819870    -10.575039    13.085453    89.810471    -47.919056    -12.672928    27.684328    -77.439270    -22.838713    -21.007223    6.250521    1.691944    -6.766623    -1.119785    35.438881    -20.349218    20.944630    -31.927485    18.231247    -12.565418    -36.266327    4.302103    19.460896    44.903061    -11.118892    18.405983    -5.282688    -5.262242    
-115.099106    80.105606    -26.569176    3.069274    -1.696149    76.718529    -8.474685    7.414824    0.835327    15.244771    5.477269    -18.258738    -6.049617    -25.437548    -18.892481    -8.638733    0.292519    -4.105102    -26.433834    22.035288    -62.249119    62.559906    -31.742315    -48.815269    116.985039    12.609228    73.525948    7.518041    0.157004    2.797382    -9.839834    12.205346    88.813271    -47.677940    -12.337237    27.103451    -75.856842    -23.675110    -20.821138    6.190501    2.058690    -6.931890    -0.900224    34.909115    -21.073534    21.070982    -31.590624    18.727255    -12.004560    -36.196289    4.414923    19.054472    43.219364    -9.866348    20.918495    -4.403639    -3.735837    
-114.884018    80.156830    -26.557314    3.088769    -1.658865    77.064095    -8.760869    7.313687    0.913548    15.300303    5.222464    -18.272411    -6.007043    -25.073883    -18.908075    -8.786261    0.322744    -3.955071    -24.857065    22.066719    -63.939522    62.947559    -30.629179    -46.942814    114.910423    13.527925    74.777641    6.986310    0.151096    2.739685    -9.243038    11.318658    87.784431    -47.193630    -11.916350    26.545116    -74.535088    -24.397924    -20.893551    6.132138    2.419077    -7.090542    -0.684573    34.367390    -21.657553    21.073635    -31.327635    19.047239    -11.393381    -36.090622    4.596267    18.429930    41.349022    -8.755249    23.196709    -3.095800    -2.330232    
